<svg width="37" height="28" viewBox="0 0 37 28" fill="none" xmlns="http://www.w3.org/2000/svg">
<path d="M5.06003 8.27994C7.86803 7.55194 10.2167 6.41661 11.04 5.93994C10.9129 8.41944 10.7484 12.5779 10.834 14.2072C11.0355 14.3937 11.1179 14.5854 11.04 14.7799C10.9292 15.057 10.8651 14.7989 10.834 14.2072C9.68912 13.1472 4.69657 12.2516 3.37003 11.9199C2.0584 11.592 1.33337 11.0533 1.16003 10.6199V9.96994C1.29003 9.70994 2.25203 9.00794 5.06003 8.27994Z" fill="#FF7D2D"/>
<path d="M11.04 5.93994C10.2167 6.41661 7.86803 7.55194 5.06003 8.27994C2.25203 9.00794 1.29003 9.70994 1.16003 9.96994V10.6199C1.33337 11.0533 2.0584 11.592 3.37003 11.9199C4.93003 12.3099 11.56 13.4799 11.04 14.7799C10.624 15.8199 10.8667 9.31994 11.04 5.93994Z" stroke="#2E3032" stroke-width="2"/>
<path d="M18 1C13.5817 1 10 4.58172 10 9V19C10 23.4183 13.5817 27 18 27H28C32.4183 27 36 23.4183 36 19V17.71C36 13.2917 32.4183 9.71 28 9.71H27.485V13.566C27.485 15.9174 25.5789 17.8235 23.2275 17.8235H22.7086C20.6438 17.8235 18.97 16.1497 18.97 14.085V14.085V13.9675C18.97 11.6161 20.8761 9.71 23.2275 9.71V9.71H27.485V9C27.485 4.58172 23.9033 1 19.485 1H18Z" fill="url(#paint0_linear)"/>
<path d="M27.485 9.71H28C32.4183 9.71 36 13.2917 36 17.71V19C36 23.4183 32.4183 27 28 27H18C13.5817 27 10 23.4183 10 19V9C10 4.58172 13.5817 1 18 1H19.485C23.9033 1 27.485 4.58172 27.485 9V9.71ZM27.485 9.71V13.566C27.485 15.9174 25.5789 17.8235 23.2275 17.8235H22.7086C20.6438 17.8235 18.97 16.1497 18.97 14.085V14.085V13.9675C18.97 11.6161 20.8761 9.71 23.2275 9.71V9.71H27.485Z" stroke="#2E3032" stroke-width="2"/>
<defs>
<linearGradient id="paint0_linear" x1="10" y1="10.23" x2="36" y2="21.02" gradientUnits="userSpaceOnUse">
<stop stop-color="#FFD247"/>
<stop offset="0.0729167" stop-color="#FFCF42"/>
<stop offset="0.927083" stop-color="#FFC466"/>
<stop offset="1" stop-color="#FFC671"/>
</linearGradient>
</defs>
</svg>
