<svg width="141" height="108" viewBox="0 0 141 108" fill="none" xmlns="http://www.w3.org/2000/svg">
<path d="M18 32C28.8 29.2 37.8333 24.8333 41 23C40.5109 32.5365 39.8784 48.5307 40.2077 54.7971C40.9827 55.5146 41.2993 56.2517 41 57C40.5737 58.0657 40.3273 57.0729 40.2077 54.7971C35.8041 50.7203 16.602 47.2755 11.5 46C6.45526 44.7388 3.66667 42.6667 3 41V38.5C3.5 37.5 7.2 34.8 18 32Z" fill="#FF7D2D"/>
<path d="M41 23C37.8333 24.8333 28.8 29.2 18 32C7.2 34.8 3.5 37.5 3 38.5V41C3.66667 42.6667 6.45526 44.7388 11.5 46C17.5 47.5 43 52 41 57C39.4 61 40.3333 36 41 23Z" stroke="white" stroke-width="6"/>
<path d="M67 4C50.4315 4 37 17.4315 37 34V74C37 90.5685 50.4315 104 67 104H107C123.569 104 137 90.5685 137 74V67.5C137 50.9315 123.569 37.5 107 37.5H104.25V52.3309C104.25 61.3745 96.9187 68.7059 87.875 68.7059H85.8791C77.9377 68.7059 71.5 62.2681 71.5 54.3268V54.3268V53.875C71.5 44.8313 78.8313 37.5 87.875 37.5V37.5H104.25V34C104.25 17.4315 90.8185 4 74.25 4H67Z" fill="url(#paint0_linear)"/>
<path d="M104.25 37.5H107C123.569 37.5 137 50.9315 137 67.5V74C137 90.5685 123.569 104 107 104H67C50.4315 104 37 90.5685 37 74V34C37 17.4315 50.4315 4 67 4H74.25C90.8185 4 104.25 17.4315 104.25 34V37.5ZM104.25 37.5V52.3309C104.25 61.3745 96.9187 68.7059 87.875 68.7059H85.8791C77.9377 68.7059 71.5 62.2681 71.5 54.3268V54.3268V53.875C71.5 44.8313 78.8313 37.5 87.875 37.5V37.5H104.25Z" stroke="white" stroke-width="7"/>
<defs>
<linearGradient id="paint0_linear" x1="37" y1="39.5" x2="137" y2="81" gradientUnits="userSpaceOnUse">
<stop stop-color="#FFD247"/>
<stop offset="0.0729167" stop-color="#FFCF42"/>
<stop offset="0.927083" stop-color="#FFC466"/>
<stop offset="1" stop-color="#FFC671"/>
</linearGradient>
</defs>
</svg>
