<svg width="50" height="38" viewBox="0 0 50 38" fill="none" xmlns="http://www.w3.org/2000/svg">
<path d="M7.14925 11.612C10.8567 10.6508 13.9577 9.15181 15.0448 8.52246C14.8769 11.7962 14.6597 17.2867 14.7728 19.4379C15.0388 19.6842 15.1475 19.9372 15.0448 20.1941C14.8984 20.5599 14.8138 20.2191 14.7728 19.4379C13.2611 18.0384 6.66936 16.8558 4.91791 16.418C3.18613 15.985 2.22886 15.2737 2 14.7016V13.8434C2.17164 13.5001 3.44179 12.5732 7.14925 11.612Z" fill="#FF7D2D"/>
<path d="M15.0448 8.52246C13.9577 9.15181 10.8567 10.6508 7.14925 11.612C3.44179 12.5732 2.17164 13.5001 2 13.8434V14.7016C2.22886 15.2737 3.18613 15.985 4.91791 16.418C6.97761 16.9329 15.7313 18.4777 15.0448 20.1941C14.4955 21.5672 14.8159 12.9851 15.0448 8.52246Z" stroke="#F7FAFD" stroke-width="3"/>
<path d="M25.236 2C18.8611 2 13.6716 7.16793 13.6716 13.5429V22.3284C13.6716 30.0603 19.9396 36.3284 27.6716 36.3284H36.5858C42.8897 36.3284 48 31.1316 48 24.8277V24.8277C48 18.6186 42.9665 13.5 36.7575 13.5V13.5V18.5912C36.7575 21.6957 34.2407 24.2125 31.1362 24.2125H30.451C27.7249 24.2125 25.5149 22.0025 25.5149 19.2764V19.2764V19.1213C25.5149 16.0167 28.0316 13.5 31.1362 13.5V13.5H36.7575V13.5C36.7575 7.14873 31.5873 2 25.236 2V2Z" fill="url(#paint0_linear)"/>
<path d="M36.7575 13.5V13.5C42.9665 13.5 48 18.6186 48 24.8277V24.8277C48 31.1316 42.8897 36.3284 36.5858 36.3284H27.6716C19.9396 36.3284 13.6716 30.0603 13.6716 22.3284V13.5429C13.6716 7.16793 18.8611 2 25.236 2V2C31.5873 2 36.7575 7.14873 36.7575 13.5V13.5ZM36.7575 13.5V18.5912C36.7575 21.6957 34.2407 24.2125 31.1362 24.2125H30.451C27.7249 24.2125 25.5149 22.0025 25.5149 19.2764V19.2764V19.1213C25.5149 16.0167 28.0316 13.5 31.1362 13.5V13.5H36.7575Z" stroke="#F7FAFD" stroke-width="3"/>
<defs>
<linearGradient id="paint0_linear" x1="13.6716" y1="14.1866" x2="48" y2="28.4328" gradientUnits="userSpaceOnUse">
<stop stop-color="#FFD247"/>
<stop offset="0.0729167" stop-color="#FFCF42"/>
<stop offset="0.927083" stop-color="#FFC466"/>
<stop offset="1" stop-color="#FFC671"/>
</linearGradient>
</defs>
</svg>
